<svg viewBox="0 0 1600 1000" xmlns="http://www.w3.org/2000/svg" role="img" aria-label="사람이 없는 아이소메트릭 사무실">
  <defs>
    <filter id="soft-shadow" x="-20%" y="-20%" width="140%" height="140%">
      <feDropShadow dx="0" dy="6" stdDeviation="10" flood-color="#000000" flood-opacity="0.12"/>
    </filter>
  </defs>
  <rect x="0" y="0" width="1600" height="1000" fill="#FCFAF4"/>
  <g filter="url(#soft-shadow)">
    <polygon points="150,245 800,-80 800,130 150,455" fill="#F6D98B" />
    <polygon points="800,-80 1450,245 1450,455 800,130" fill="#CBD3D8" />
    <polygon points="228,266 345,207.5 345,287.5 228,346" fill="#FFFFFF" opacity="0.85"/><polygon points="410,175 527,116.5 527,196.5 410,255" fill="#FFFFFF" opacity="0.85"/><polygon points="1157.5,158.8 1268,214 1268,294 1157.5,238.8" fill="#FFFFFF" opacity="0.85"/>
    
  <circle cx="1164" cy="335" r="16" fill="#FFFFFF" stroke="#8C7128" stroke-width="2"/>
  <line x1="1164" y1="335" x2="1164" y2="325" stroke="#4A4A4A" stroke-width="2"/>
  <line x1="1164" y1="335" x2="1171" y2="337" stroke="#4A4A4A" stroke-width="2"/>

    <polygon points="800,130 1450,455 800,780 150,455" fill="#EFE6D2" />
    <polygon points="780.5,172.3 995,279.5 748,403 533.5,295.8" fill="#F4E9C9" /><polygon points="494.5,315.3 709,422.5 449,552.5 234.5,445.3" fill="#F4E9C9" /><polygon points="1021,292.5 1151,357.5 943,461.5 813,396.5" fill="#E9EEF1" /><polygon points="774,416 904,481 696,585 566,520" fill="#F1E4D3" /><polygon points="540,533 670,598 585.5,640.3 455.5,575.3" fill="#FBEFD9" /><polygon points="1177,370.5 1365.5,464.8 819.5,737.8 631,643.5" fill="#E7EDE7" />
    <line x1="1027.5" y1="276.3" x2="442.5" y2="568.8" stroke="#C9BFA0" stroke-width="3" stroke-linecap="round" opacity="0.7"/><line x1="1183.5" y1="354.3" x2="598.5" y2="646.8" stroke="#C9BFA0" stroke-width="3" stroke-linecap="round" opacity="0.7"/><line x1="501" y1="299" x2="741.5" y2="419.3" stroke="#C9BFA0" stroke-width="3" stroke-linecap="round" opacity="0.7"/><line x1="793.5" y1="406.3" x2="923.5" y2="471.3" stroke="#C9BFA0" stroke-width="3" stroke-linecap="round" opacity="0.7"/><line x1="553" y1="526.5" x2="683" y2="591.5" stroke="#C9BFA0" stroke-width="3" stroke-linecap="round" opacity="0.7"/>
  </g>
  <g>
    <polygon points="733.5,221.8 767.5,241.8 767.5,263.8 733.5,243.8" fill="#B9C2C9" /><polygon points="767.5,241.8 801.5,221.8 801.5,243.8 767.5,263.8" fill="#9AA4AC" /><polygon points="767.5,201.8 801.5,221.8 767.5,241.8 733.5,221.8" fill="#E4E9ED" /><polygon points="754.5,223.8 763.5,226.8 763.5,242.8 754.5,239.8" fill="#2A2E33" /><polygon points="763.5,226.8 772.5,223.8 772.5,239.8 763.5,242.8" fill="#22262A" /><polygon points="763.5,220.8 772.5,223.8 763.5,226.8 754.5,223.8" fill="#3B4046" /><polygon points="740,303 774,323 774,345 740,325" fill="#B9C2C9" /><polygon points="774,323 808,303 808,325 774,345" fill="#9AA4AC" /><polygon points="774,283 808,303 774,323 740,303" fill="#E4E9ED" /><polygon points="761,305 770,308 770,324 761,321" fill="#2A2E33" /><polygon points="770,308 779,305 779,321 770,324" fill="#22262A" /><polygon points="770,302 779,305 770,308 761,305" fill="#3B4046" /><polygon points="434.5,371.3 468.5,391.3 468.5,413.3 434.5,393.3" fill="#B9C2C9" /><polygon points="468.5,391.3 502.5,371.3 502.5,393.3 468.5,413.3" fill="#9AA4AC" /><polygon points="468.5,351.3 502.5,371.3 468.5,391.3 434.5,371.3" fill="#E4E9ED" /><polygon points="455.5,373.3 464.5,376.3 464.5,392.3 455.5,389.3" fill="#2A2E33" /><polygon points="464.5,376.3 473.5,373.3 473.5,389.3 464.5,392.3" fill="#22262A" /><polygon points="464.5,370.3 473.5,373.3 464.5,376.3 455.5,373.3" fill="#3B4046" /><polygon points="441,452.5 475,472.5 475,494.5 441,474.5" fill="#B9C2C9" /><polygon points="475,472.5 509,452.5 509,474.5 475,494.5" fill="#9AA4AC" /><polygon points="475,432.5 509,452.5 475,472.5 441,452.5" fill="#E4E9ED" /><polygon points="462,454.5 471,457.5 471,473.5 462,470.5" fill="#2A2E33" /><polygon points="471,457.5 480,454.5 480,470.5 471,473.5" fill="#22262A" /><polygon points="471,451.5 480,454.5 471,457.5 462,454.5" fill="#3B4046" /><polygon points="974,342 1008,362 1008,384 974,364" fill="#B9C2C9" /><polygon points="1008,362 1042,342 1042,364 1008,384" fill="#9AA4AC" /><polygon points="1008,322 1042,342 1008,362 974,342" fill="#E4E9ED" /><polygon points="995,344 1004,347 1004,363 995,360" fill="#2A2E33" /><polygon points="1004,347 1013,344 1013,360 1004,363" fill="#22262A" /><polygon points="1004,341 1013,344 1004,347 995,344" fill="#3B4046" /><polygon points="1079,311.5 1099,323.5 1099,369.5 1079,357.5" fill="#CBA956" /><polygon points="1099,323.5 1119,311.5 1119,357.5 1099,369.5" fill="#AE8C3F" /><polygon points="1099,299.5 1119,311.5 1099,323.5 1079,311.5" fill="#E7C878" /><line x1="1079" y1="343.5" x2="1099" y2="331.5" stroke="#8C7128" stroke-width="1.5" opacity="0.6"/><line x1="1079" y1="329.5" x2="1099" y2="317.5" stroke="#8C7128" stroke-width="1.5" opacity="0.6"/><polygon points="709,484.5 735,510.5 735,526.5 709,500.5" fill="#C9C2B4" /><polygon points="735,510.5 761,484.5 761,500.5 735,526.5" fill="#AEA895" /><polygon points="735,458.5 761,484.5 735,510.5 709,484.5" fill="#E7E1D6" /><polygon points="523,564.5 553,580.5 553,594.5 523,578.5" fill="#D6A937" /><polygon points="553,580.5 583,564.5 583,578.5 553,594.5" fill="#B98E27" /><polygon points="553,548.5 583,564.5 553,580.5 523,564.5" fill="#F2C555" /><polygon points="509,546.5 539,550.5 539,576.5 509,572.5" fill="#D6A937" /><polygon points="539,550.5 569,546.5 569,572.5 539,576.5" fill="#B98E27" /><polygon points="539,542.5 569,546.5 539,550.5 509,546.5" fill="#F6D372" /><polygon points="580,595 592,605 592,621 580,611" fill="#C9C2B4" /><polygon points="592,605 604,595 604,611 592,621" fill="#AEA895" /><polygon points="592,585 604,595 592,605 580,595" fill="#E7E1D6" /><polygon points="1157,376.5 1177,388.5 1177,434.5 1157,422.5" fill="#CBA956" /><polygon points="1177,388.5 1197,376.5 1197,422.5 1177,434.5" fill="#AE8C3F" /><polygon points="1177,364.5 1197,376.5 1177,388.5 1157,376.5" fill="#E7C878" /><line x1="1157" y1="408.5" x2="1177" y2="396.5" stroke="#8C7128" stroke-width="1.5" opacity="0.6"/><line x1="1157" y1="394.5" x2="1177" y2="382.5" stroke="#8C7128" stroke-width="1.5" opacity="0.6"/><polygon points="1235,415.5 1255,427.5 1255,473.5 1235,461.5" fill="#CBA956" /><polygon points="1255,427.5 1275,415.5 1275,461.5 1255,473.5" fill="#AE8C3F" /><polygon points="1255,403.5 1275,415.5 1255,427.5 1235,415.5" fill="#E7C878" /><line x1="1235" y1="447.5" x2="1255" y2="435.5" stroke="#8C7128" stroke-width="1.5" opacity="0.6"/><line x1="1235" y1="433.5" x2="1255" y2="421.5" stroke="#8C7128" stroke-width="1.5" opacity="0.6"/><polygon points="1083,471.5 1099,483.5 1099,499.5 1083,487.5" fill="#B7BEC4" /><polygon points="1099,483.5 1115,471.5 1115,487.5 1099,499.5" fill="#98A0A6" /><polygon points="1099,459.5 1115,471.5 1099,483.5 1083,471.5" fill="#DADFE3" /><polygon points="1138,500.5 1151,509.5 1151,522.5 1138,513.5" fill="#ddb75c" /><polygon points="1151,509.5 1164,500.5 1164,513.5 1151,522.5" fill="#cda74c" /><polygon points="1151,491.5 1164,500.5 1151,509.5 1138,500.5" fill="#EFC96E" /><polygon points="1060,513.5 1073,522.5 1073,535.5 1060,526.5" fill="#7db276" /><polygon points="1073,522.5 1086,513.5 1086,526.5 1073,535.5" fill="#6da266" /><polygon points="1073,504.5 1086,513.5 1073,522.5 1060,513.5" fill="#8FC488" /><polygon points="1112,539.5 1125,548.5 1125,561.5 1112,552.5" fill="#6da4c7" /><polygon points="1125,548.5 1138,539.5 1138,552.5 1125,561.5" fill="#5d94b7" /><polygon points="1125,530.5 1138,539.5 1125,548.5 1112,539.5" fill="#7FB6D9" /><polygon points="765.1,163.4 780.5,172.2 780.5,187.6 765.1,178.8" fill="#A96D42" /><polygon points="780.5,172.2 795.9,163.4 795.9,178.8 780.5,187.6" fill="#8C5934" /><polygon points="780.5,154.5 795.9,163.4 780.5,172.2 765.1,163.4" fill="#C98B5C" /><ellipse cx="780.5" cy="134.8" rx="28.6" ry="33" fill="#5C9A63"/><ellipse cx="771.7" cy="128.2" rx="15.4" ry="17.6" fill="#71AE77"/><polygon points="409,538.5 423,546.5 423,560.5 409,552.5" fill="#A96D42" /><polygon points="423,546.5 437,538.5 437,552.5 423,560.5" fill="#8C5934" /><polygon points="423,530.5 437,538.5 423,546.5 409,538.5" fill="#C98B5C" /><ellipse cx="423" cy="512.5" rx="26" ry="30" fill="#5C9A63"/><ellipse cx="415" cy="506.5" rx="14" ry="16" fill="#71AE77"/><polygon points="1157.9,341.7 1170.5,348.8 1170.5,361.5 1157.9,354.3" fill="#A96D42" /><polygon points="1170.5,348.8 1183.1,341.7 1183.1,354.3 1170.5,361.5" fill="#8C5934" /><polygon points="1170.5,334.5 1183.1,341.7 1170.5,348.8 1157.9,341.7" fill="#C98B5C" /><ellipse cx="1170.5" cy="318.3" rx="23.4" ry="27" fill="#5C9A63"/><ellipse cx="1163.3" cy="312.9" rx="12.6" ry="14.4" fill="#71AE77"/><polygon points="804.1,709.4 819.5,718.2 819.5,733.6 804.1,724.8" fill="#A96D42" /><polygon points="819.5,718.2 834.9,709.4 834.9,724.8 819.5,733.6" fill="#8C5934" /><polygon points="819.5,700.6 834.9,709.4 819.5,718.2 804.1,709.4" fill="#C98B5C" /><ellipse cx="819.5" cy="680.8" rx="28.6" ry="33" fill="#5C9A63"/><ellipse cx="810.7" cy="674.2" rx="15.4" ry="17.6" fill="#71AE77"/>
  </g>
  <g>
    
    <g>
      <rect x="775.6" y="166.6" width="190.5" height="24" rx="6" fill="#FFFFFF" opacity="0.78"/>
      <text x="783.6" y="183.6" font-family="'Segoe UI', sans-serif" font-size="15" font-weight="600" fill="#7A6E4E">개방형 업무 공간 1</text>
    </g>
    <g>
      <rect x="489.6" y="309.6" width="190.5" height="24" rx="6" fill="#FFFFFF" opacity="0.78"/>
      <text x="497.6" y="326.6" font-family="'Segoe UI', sans-serif" font-size="15" font-weight="600" fill="#7A6E4E">개방형 업무 공간 2</text>
    </g>
    <g>
      <rect x="1011.1" y="284.3" width="144" height="24" rx="6" fill="#FFFFFF" opacity="0.78"/>
      <text x="1019.1" y="301.3" font-family="'Segoe UI', sans-serif" font-size="15" font-weight="600" fill="#7A6E4E">독립 사무 공간</text>
    </g>
    <g>
      <rect x="764.1" y="407.8" width="97.5" height="24" rx="6" fill="#FFFFFF" opacity="0.78"/>
      <text x="772.1" y="424.8" font-family="'Segoe UI', sans-serif" font-size="15" font-weight="600" fill="#7A6E4E">회의 공간</text>
    </g>
    <g>
      <rect x="530.1" y="524.8" width="97.5" height="24" rx="6" fill="#FFFFFF" opacity="0.78"/>
      <text x="538.1" y="541.8" font-family="'Segoe UI', sans-serif" font-size="15" font-weight="600" fill="#7A6E4E">휴게 공간</text>
    </g>
    <g>
      <rect x="1170.6" y="364" width="159.5" height="24" rx="6" fill="#FFFFFF" opacity="0.78"/>
      <text x="1178.6" y="381" font-family="'Segoe UI', sans-serif" font-size="15" font-weight="600" fill="#7A6E4E">공용 결과물 공간</text>
    </g>
  </g>
</svg>
